<?xml version="1.0" standalone="no"?>
<!DOCTYPE svg PUBLIC "-//W3C//DTD SVG 20010904//EN"
 "http://www.w3.org/TR/2001/REC-SVG-20010904/DTD/svg10.dtd">
<svg version="1.0" xmlns="http://www.w3.org/2000/svg"
 width="320.000000pt" height="320.000000pt" viewBox="0 0 320.000000 320.000000"
 preserveAspectRatio="xMidYMid meet">
<metadata>
Created by potrace 1.11, written by Peter Selinger 2001-2013
</metadata>
<g transform="translate(0.000000,320.000000) scale(0.100000,-0.100000)"
fill="#000000" stroke="none">
<path d="M774 1603 l1 -1598 798 -2 c768 -3 800 -2 849 17 106 40 180 116 214
220 16 50 18 107 18 706 l0 651 -24 63 c-38 95 -137 187 -221 206 -11 2 -29 6
-41 9 -12 2 -46 5 -75 6 -29 1 -53 3 -53 5 0 1 5 15 11 31 6 15 13 39 16 53 9
40 9 880 0 938 -16 109 -89 207 -193 258 l-59 29 -621 3 -621 3 1 -1598z
m1210 1366 c16 -8 39 -27 50 -42 21 -28 21 -39 22 -478 1 -445 1 -450 -20
-482 -41 -61 -35 -61 -554 -61 -261 -1 -478 2 -483 5 -13 8 -13 1060 0 1068 5
3 222 6 483 5 391 0 478 -3 502 -15z m399 -1329 c56 -49 54 -25 53 -705 -1
-585 -2 -633 -19 -658 -42 -65 -1 -62 -749 -62 l-678 0 -1 562 c0 310 0 619 0
688 0 69 0 142 0 163 l1 38 683 -1 682 -1 28 -24z"/>
<path d="M1426 2680 l-49 -5 -1 -213 c-1 -132 3 -217 9 -221 19 -14 170 -4
203 13 31 16 69 77 66 106 -1 8 -2 25 -3 37 0 12 -16 37 -35 56 -33 33 -33 34
-15 56 27 33 25 93 -3 126 -28 32 -105 52 -172 45z m98 -96 c33 -32 13 -74
-35 -74 -25 0 -27 3 -27 38 0 20 2 40 5 45 8 12 41 8 57 -9z m24 -170 c27 -19
30 -69 5 -83 -17 -9 -55 -14 -79 -12 -7 1 -12 22 -13 56 l0 55 32 0 c18 0 43
-7 55 -16z"/>
<path d="M1586 1304 c-9 -8 -16 -31 -16 -50 0 -38 12 -36 -147 -36 -77 0 -84
-2 -103 -25 -20 -26 -16 -52 13 -70 6 -4 95 -8 197 -8 l185 -1 -3 -29 c-3 -31
-43 -106 -72 -138 -17 -17 -19 -17 -45 15 -15 18 -37 52 -48 76 -23 46 -52 61
-86 42 -39 -20 -19 -93 49 -180 l28 -36 -64 -43 c-93 -63 -109 -93 -65 -128
24 -19 54 -8 137 52 l76 54 53 -36 54 -35 -29 -59 c-35 -69 -36 -73 -10 -99
27 -27 46 -25 76 7 21 23 32 26 93 27 94 2 123 30 86 83 -12 17 -24 20 -60 19
-25 -1 -45 0 -45 2 0 16 64 131 71 127 4 -3 35 -60 69 -128 34 -67 70 -130 80
-141 25 -25 65 -15 77 20 7 22 -7 56 -92 222 -85 167 -104 197 -127 203 -34 9
-45 -3 -98 -108 -44 -88 -44 -88 -94 -49 -18 15 -18 16 10 48 32 37 68 111 84
174 9 37 12 40 42 39 42 -1 68 20 68 56 0 41 -22 48 -146 47 l-109 -1 -1 38
c-1 57 -52 85 -88 49z"/>
</g>
</svg>
